<mxfile host="app.diagrams.net" agent="Mozilla/5.0 (Windows NT 10.0; Win64; x64; rv:139.0) Gecko/20100101 Firefox/139.0" version="27.0.3">
  <diagram name="Strona-1" id="WqXOmUoeHCtqSivCLRUv">
    <mxGraphModel dx="1554" dy="857" grid="1" gridSize="10" guides="1" tooltips="1" connect="1" arrows="1" fold="1" page="1" pageScale="1" pageWidth="827" pageHeight="1169" math="0" shadow="0">
      <root>
        <mxCell id="0" />
        <mxCell id="1" parent="0" />
        <mxCell id="FR8K50iOJE0lK1b_2H4d-3" value="" style="rounded=1;whiteSpace=wrap;html=1;opacity=40;fillColor=#dae8fc;strokeColor=#6c8ebf;" vertex="1" parent="1">
          <mxGeometry x="320" y="150" width="570" height="430" as="geometry" />
        </mxCell>
        <mxCell id="FR8K50iOJE0lK1b_2H4d-4" value="&lt;font style=&quot;font-size: 36px;&quot;&gt;Azure&lt;/font&gt;" style="text;html=1;align=center;verticalAlign=middle;whiteSpace=wrap;rounded=0;" vertex="1" parent="1">
          <mxGeometry x="537" y="170" width="126" height="40" as="geometry" />
        </mxCell>
        <mxCell id="FR8K50iOJE0lK1b_2H4d-12" style="edgeStyle=orthogonalEdgeStyle;rounded=0;orthogonalLoop=1;jettySize=auto;html=1;entryX=0;entryY=0.5;entryDx=0;entryDy=0;" edge="1" parent="1" source="FR8K50iOJE0lK1b_2H4d-6" target="FR8K50iOJE0lK1b_2H4d-9">
          <mxGeometry relative="1" as="geometry" />
        </mxCell>
        <mxCell id="FR8K50iOJE0lK1b_2H4d-6" value="Frontend" style="rounded=0;whiteSpace=wrap;html=1;" vertex="1" parent="1">
          <mxGeometry x="354" y="245" width="120" height="280" as="geometry" />
        </mxCell>
        <mxCell id="FR8K50iOJE0lK1b_2H4d-7" value="Użytkownik" style="shape=umlActor;verticalLabelPosition=bottom;verticalAlign=top;html=1;outlineConnect=0;" vertex="1" parent="1">
          <mxGeometry x="100" y="355" width="30" height="60" as="geometry" />
        </mxCell>
        <mxCell id="FR8K50iOJE0lK1b_2H4d-9" value="Backend" style="rounded=0;whiteSpace=wrap;html=1;" vertex="1" parent="1">
          <mxGeometry x="540" y="245" width="120" height="280" as="geometry" />
        </mxCell>
        <mxCell id="FR8K50iOJE0lK1b_2H4d-10" value="Relacyjna baza danych PostgreSQL" style="shape=cylinder3;whiteSpace=wrap;html=1;boundedLbl=1;backgroundOutline=1;size=15;" vertex="1" parent="1">
          <mxGeometry x="720" y="300" width="143" height="170" as="geometry" />
        </mxCell>
        <mxCell id="FR8K50iOJE0lK1b_2H4d-13" style="edgeStyle=orthogonalEdgeStyle;rounded=0;orthogonalLoop=1;jettySize=auto;html=1;entryX=0;entryY=0.5;entryDx=0;entryDy=0;entryPerimeter=0;" edge="1" parent="1" source="FR8K50iOJE0lK1b_2H4d-9" target="FR8K50iOJE0lK1b_2H4d-10">
          <mxGeometry relative="1" as="geometry" />
        </mxCell>
        <mxCell id="FR8K50iOJE0lK1b_2H4d-15" value="" style="edgeStyle=orthogonalEdgeStyle;rounded=0;orthogonalLoop=1;jettySize=auto;html=1;" edge="1" parent="1" source="FR8K50iOJE0lK1b_2H4d-7" target="FR8K50iOJE0lK1b_2H4d-14">
          <mxGeometry relative="1" as="geometry">
            <mxPoint x="130" y="385" as="sourcePoint" />
            <mxPoint x="302" y="385" as="targetPoint" />
          </mxGeometry>
        </mxCell>
        <mxCell id="FR8K50iOJE0lK1b_2H4d-16" style="edgeStyle=orthogonalEdgeStyle;rounded=0;orthogonalLoop=1;jettySize=auto;html=1;entryX=0;entryY=0.5;entryDx=0;entryDy=0;" edge="1" parent="1" source="FR8K50iOJE0lK1b_2H4d-14" target="FR8K50iOJE0lK1b_2H4d-6">
          <mxGeometry relative="1" as="geometry" />
        </mxCell>
        <mxCell id="FR8K50iOJE0lK1b_2H4d-14" value="Przeglądarka" style="shape=process;whiteSpace=wrap;html=1;backgroundOutline=1;" vertex="1" parent="1">
          <mxGeometry x="180" y="355" width="120" height="60" as="geometry" />
        </mxCell>
      </root>
    </mxGraphModel>
  </diagram>
</mxfile>
